<mxfile host="Electron" agent="Mozilla/5.0 (Windows NT 10.0; Win64; x64) AppleWebKit/537.36 (KHTML, like Gecko) draw.io/26.0.15 Chrome/132.0.6834.196 Electron/34.2.0 Safari/537.36" version="26.0.15">
  <diagram name="Page-1" id="zd4951VghuFBgSiTKifG">
    <mxGraphModel dx="1062" dy="619" grid="1" gridSize="10" guides="1" tooltips="1" connect="1" arrows="1" fold="1" page="1" pageScale="1" pageWidth="850" pageHeight="1100" math="0" shadow="0">
      <root>
        <mxCell id="0" />
        <mxCell id="1" parent="0" />
        <mxCell id="VssTWOe-dqne4Bf0Tcgv-1" value="" style="rounded=0;whiteSpace=wrap;html=1;" vertex="1" parent="1">
          <mxGeometry x="40" y="80" width="300" height="360" as="geometry" />
        </mxCell>
        <mxCell id="VssTWOe-dqne4Bf0Tcgv-2" value="" style="rounded=0;whiteSpace=wrap;html=1;" vertex="1" parent="1">
          <mxGeometry x="450" y="80" width="320" height="510" as="geometry" />
        </mxCell>
        <mxCell id="VssTWOe-dqne4Bf0Tcgv-4" value="" style="verticalLabelPosition=bottom;verticalAlign=top;html=1;shape=mxgraph.basic.rect;fillColor2=none;strokeWidth=1;size=20;indent=5;" vertex="1" parent="1">
          <mxGeometry x="40" y="80" width="70" height="30" as="geometry" />
        </mxCell>
        <mxCell id="VssTWOe-dqne4Bf0Tcgv-5" value="User" style="text;html=1;align=center;verticalAlign=middle;resizable=0;points=[];autosize=1;strokeColor=none;fillColor=none;" vertex="1" parent="1">
          <mxGeometry x="50" y="80" width="50" height="30" as="geometry" />
        </mxCell>
        <mxCell id="VssTWOe-dqne4Bf0Tcgv-6" value="" style="verticalLabelPosition=bottom;verticalAlign=top;html=1;shape=mxgraph.basic.rect;fillColor2=none;strokeWidth=1;size=20;indent=5;" vertex="1" parent="1">
          <mxGeometry x="450" y="80" width="70" height="30" as="geometry" />
        </mxCell>
        <mxCell id="VssTWOe-dqne4Bf0Tcgv-7" value="Artist" style="text;html=1;align=center;verticalAlign=middle;resizable=0;points=[];autosize=1;strokeColor=none;fillColor=none;" vertex="1" parent="1">
          <mxGeometry x="460" y="80" width="50" height="30" as="geometry" />
        </mxCell>
        <mxCell id="VssTWOe-dqne4Bf0Tcgv-10" value="" style="rounded=0;whiteSpace=wrap;html=1;" vertex="1" parent="1">
          <mxGeometry x="40" y="500" width="300" height="520" as="geometry" />
        </mxCell>
        <mxCell id="VssTWOe-dqne4Bf0Tcgv-12" value="Create User Profile" style="rounded=0;whiteSpace=wrap;html=1;fontSize=16;" vertex="1" parent="1">
          <mxGeometry x="50" y="120" width="120" height="40" as="geometry" />
        </mxCell>
        <mxCell id="VssTWOe-dqne4Bf0Tcgv-16" value="Listen Music" style="rounded=0;whiteSpace=wrap;html=1;fontSize=16;" vertex="1" parent="1">
          <mxGeometry x="210" y="120" width="120" height="40" as="geometry" />
        </mxCell>
        <mxCell id="VssTWOe-dqne4Bf0Tcgv-17" value="Like Music" style="rounded=0;whiteSpace=wrap;html=1;fontSize=16;" vertex="1" parent="1">
          <mxGeometry x="210" y="170" width="120" height="40" as="geometry" />
        </mxCell>
        <mxCell id="VssTWOe-dqne4Bf0Tcgv-18" value="Unlike Music" style="rounded=0;whiteSpace=wrap;html=1;fontSize=16;" vertex="1" parent="1">
          <mxGeometry x="210" y="225" width="120" height="40" as="geometry" />
        </mxCell>
        <mxCell id="VssTWOe-dqne4Bf0Tcgv-19" value="Create Playlists" style="rounded=0;whiteSpace=wrap;html=1;fontSize=16;" vertex="1" parent="1">
          <mxGeometry x="50" y="170" width="120" height="40" as="geometry" />
        </mxCell>
        <mxCell id="VssTWOe-dqne4Bf0Tcgv-20" value="View Playlists" style="rounded=0;whiteSpace=wrap;html=1;fontSize=16;" vertex="1" parent="1">
          <mxGeometry x="50" y="280" width="120" height="40" as="geometry" />
        </mxCell>
        <mxCell id="VssTWOe-dqne4Bf0Tcgv-21" value="Update Own Playlists" style="rounded=0;whiteSpace=wrap;html=1;fontSize=16;" vertex="1" parent="1">
          <mxGeometry x="50" y="225" width="120" height="40" as="geometry" />
        </mxCell>
        <mxCell id="VssTWOe-dqne4Bf0Tcgv-22" value="Delete O&lt;span style=&quot;background-color: transparent; color: light-dark(rgb(0, 0, 0), rgb(255, 255, 255));&quot;&gt;wn Playlists&lt;/span&gt;" style="rounded=0;whiteSpace=wrap;html=1;fontSize=16;" vertex="1" parent="1">
          <mxGeometry x="50" y="330" width="120" height="40" as="geometry" />
        </mxCell>
        <mxCell id="VssTWOe-dqne4Bf0Tcgv-23" value="Post Comment" style="rounded=0;whiteSpace=wrap;html=1;fontSize=16;" vertex="1" parent="1">
          <mxGeometry x="210" y="280" width="120" height="40" as="geometry" />
        </mxCell>
        <mxCell id="VssTWOe-dqne4Bf0Tcgv-24" value="View Comment" style="rounded=0;whiteSpace=wrap;html=1;fontSize=16;" vertex="1" parent="1">
          <mxGeometry x="210" y="330" width="120" height="40" as="geometry" />
        </mxCell>
        <mxCell id="VssTWOe-dqne4Bf0Tcgv-25" value="Update Own Comment" style="rounded=0;whiteSpace=wrap;html=1;fontSize=16;" vertex="1" parent="1">
          <mxGeometry x="210" y="380" width="120" height="40" as="geometry" />
        </mxCell>
        <mxCell id="VssTWOe-dqne4Bf0Tcgv-26" value="Delete Own Comment" style="rounded=0;whiteSpace=wrap;html=1;fontSize=16;" vertex="1" parent="1">
          <mxGeometry x="50" y="380" width="120" height="40" as="geometry" />
        </mxCell>
        <mxCell id="VssTWOe-dqne4Bf0Tcgv-28" value="Create User Profile" style="rounded=0;whiteSpace=wrap;html=1;fontSize=16;" vertex="1" parent="1">
          <mxGeometry x="460" y="120" width="120" height="40" as="geometry" />
        </mxCell>
        <mxCell id="VssTWOe-dqne4Bf0Tcgv-29" value="View User Profile" style="rounded=0;whiteSpace=wrap;html=1;fontSize=16;" vertex="1" parent="1">
          <mxGeometry x="460" y="170" width="120" height="40" as="geometry" />
        </mxCell>
        <mxCell id="VssTWOe-dqne4Bf0Tcgv-30" value="Update Own User Profile" style="rounded=0;whiteSpace=wrap;html=1;fontSize=16;" vertex="1" parent="1">
          <mxGeometry x="460" y="225" width="120" height="40" as="geometry" />
        </mxCell>
        <mxCell id="VssTWOe-dqne4Bf0Tcgv-31" value="Delete O&lt;span style=&quot;background-color: transparent; color: light-dark(rgb(0, 0, 0), rgb(255, 255, 255));&quot;&gt;wn User Profile&lt;/span&gt;" style="rounded=0;whiteSpace=wrap;html=1;fontSize=16;" vertex="1" parent="1">
          <mxGeometry x="460" y="280" width="120" height="40" as="geometry" />
        </mxCell>
        <mxCell id="VssTWOe-dqne4Bf0Tcgv-32" value="Create Playlists" style="rounded=0;whiteSpace=wrap;html=1;fontSize=16;" vertex="1" parent="1">
          <mxGeometry x="460" y="330" width="120" height="40" as="geometry" />
        </mxCell>
        <mxCell id="VssTWOe-dqne4Bf0Tcgv-33" value="View Playlists" style="rounded=0;whiteSpace=wrap;html=1;fontSize=16;" vertex="1" parent="1">
          <mxGeometry x="460" y="430" width="120" height="40" as="geometry" />
        </mxCell>
        <mxCell id="VssTWOe-dqne4Bf0Tcgv-34" value="Update Own Playlists" style="rounded=0;whiteSpace=wrap;html=1;fontSize=16;" vertex="1" parent="1">
          <mxGeometry x="460" y="380" width="120" height="40" as="geometry" />
        </mxCell>
        <mxCell id="VssTWOe-dqne4Bf0Tcgv-35" value="Delete O&lt;span style=&quot;background-color: transparent; color: light-dark(rgb(0, 0, 0), rgb(255, 255, 255));&quot;&gt;wn Playlists&lt;/span&gt;" style="rounded=0;whiteSpace=wrap;html=1;fontSize=16;" vertex="1" parent="1">
          <mxGeometry x="460" y="480" width="120" height="40" as="geometry" />
        </mxCell>
        <mxCell id="VssTWOe-dqne4Bf0Tcgv-36" value="Listen Music" style="rounded=0;whiteSpace=wrap;html=1;fontSize=16;" vertex="1" parent="1">
          <mxGeometry x="620" y="120" width="120" height="40" as="geometry" />
        </mxCell>
        <mxCell id="VssTWOe-dqne4Bf0Tcgv-37" value="Like Music" style="rounded=0;whiteSpace=wrap;html=1;fontSize=16;" vertex="1" parent="1">
          <mxGeometry x="620" y="330" width="120" height="40" as="geometry" />
        </mxCell>
        <mxCell id="VssTWOe-dqne4Bf0Tcgv-38" value="Unlike Music" style="rounded=0;whiteSpace=wrap;html=1;fontSize=16;" vertex="1" parent="1">
          <mxGeometry x="620" y="380" width="120" height="40" as="geometry" />
        </mxCell>
        <mxCell id="VssTWOe-dqne4Bf0Tcgv-39" value="Post Comment" style="rounded=0;whiteSpace=wrap;html=1;fontSize=16;" vertex="1" parent="1">
          <mxGeometry x="620" y="430" width="120" height="40" as="geometry" />
        </mxCell>
        <mxCell id="VssTWOe-dqne4Bf0Tcgv-40" value="View Comment" style="rounded=0;whiteSpace=wrap;html=1;fontSize=16;" vertex="1" parent="1">
          <mxGeometry x="620" y="480" width="120" height="40" as="geometry" />
        </mxCell>
        <mxCell id="VssTWOe-dqne4Bf0Tcgv-41" value="Update Own Comment" style="rounded=0;whiteSpace=wrap;html=1;fontSize=16;" vertex="1" parent="1">
          <mxGeometry x="460" y="530" width="120" height="40" as="geometry" />
        </mxCell>
        <mxCell id="VssTWOe-dqne4Bf0Tcgv-42" value="Delete Own Comment" style="rounded=0;whiteSpace=wrap;html=1;fontSize=16;" vertex="1" parent="1">
          <mxGeometry x="620" y="530" width="120" height="40" as="geometry" />
        </mxCell>
        <mxCell id="VssTWOe-dqne4Bf0Tcgv-43" value="Post Music" style="rounded=0;whiteSpace=wrap;html=1;fontSize=16;" vertex="1" parent="1">
          <mxGeometry x="620" y="225" width="120" height="40" as="geometry" />
        </mxCell>
        <mxCell id="VssTWOe-dqne4Bf0Tcgv-44" value="Update Music" style="rounded=0;whiteSpace=wrap;html=1;fontSize=16;" vertex="1" parent="1">
          <mxGeometry x="620" y="170" width="120" height="40" as="geometry" />
        </mxCell>
        <mxCell id="VssTWOe-dqne4Bf0Tcgv-45" value="Delete Music" style="rounded=0;whiteSpace=wrap;html=1;fontSize=16;" vertex="1" parent="1">
          <mxGeometry x="620" y="280" width="120" height="40" as="geometry" />
        </mxCell>
        <mxCell id="VssTWOe-dqne4Bf0Tcgv-46" value="Create User Profile" style="rounded=0;whiteSpace=wrap;html=1;fontSize=16;" vertex="1" parent="1">
          <mxGeometry x="50" y="560" width="120" height="40" as="geometry" />
        </mxCell>
        <mxCell id="VssTWOe-dqne4Bf0Tcgv-47" value="View User Profile" style="rounded=0;whiteSpace=wrap;html=1;fontSize=16;" vertex="1" parent="1">
          <mxGeometry x="50" y="610" width="120" height="40" as="geometry" />
        </mxCell>
        <mxCell id="VssTWOe-dqne4Bf0Tcgv-49" value="Delete O&lt;span style=&quot;background-color: transparent; color: light-dark(rgb(0, 0, 0), rgb(255, 255, 255));&quot;&gt;wn User Profile&lt;/span&gt;" style="rounded=0;whiteSpace=wrap;html=1;fontSize=16;" vertex="1" parent="1">
          <mxGeometry x="50" y="665" width="120" height="40" as="geometry" />
        </mxCell>
        <mxCell id="VssTWOe-dqne4Bf0Tcgv-50" value="Create Playlists" style="rounded=0;whiteSpace=wrap;html=1;fontSize=16;" vertex="1" parent="1">
          <mxGeometry x="50" y="770" width="120" height="40" as="geometry" />
        </mxCell>
        <mxCell id="VssTWOe-dqne4Bf0Tcgv-51" value="View Playlists" style="rounded=0;whiteSpace=wrap;html=1;fontSize=16;" vertex="1" parent="1">
          <mxGeometry x="50" y="870" width="120" height="40" as="geometry" />
        </mxCell>
        <mxCell id="VssTWOe-dqne4Bf0Tcgv-52" value="Update Own Playlists" style="rounded=0;whiteSpace=wrap;html=1;fontSize=16;" vertex="1" parent="1">
          <mxGeometry x="50" y="820" width="120" height="40" as="geometry" />
        </mxCell>
        <mxCell id="VssTWOe-dqne4Bf0Tcgv-53" value="Delete&lt;span style=&quot;background-color: transparent; color: light-dark(rgb(0, 0, 0), rgb(255, 255, 255));&quot;&gt;&amp;nbsp;Playlists&lt;/span&gt;" style="rounded=0;whiteSpace=wrap;html=1;fontSize=16;" vertex="1" parent="1">
          <mxGeometry x="50" y="920" width="120" height="40" as="geometry" />
        </mxCell>
        <mxCell id="VssTWOe-dqne4Bf0Tcgv-54" value="Listen Music" style="rounded=0;whiteSpace=wrap;html=1;fontSize=16;" vertex="1" parent="1">
          <mxGeometry x="210" y="560" width="120" height="40" as="geometry" />
        </mxCell>
        <mxCell id="VssTWOe-dqne4Bf0Tcgv-55" value="Like Music" style="rounded=0;whiteSpace=wrap;html=1;fontSize=16;" vertex="1" parent="1">
          <mxGeometry x="210" y="665" width="120" height="40" as="geometry" />
        </mxCell>
        <mxCell id="VssTWOe-dqne4Bf0Tcgv-56" value="Unlike Music" style="rounded=0;whiteSpace=wrap;html=1;fontSize=16;" vertex="1" parent="1">
          <mxGeometry x="210" y="720" width="120" height="40" as="geometry" />
        </mxCell>
        <mxCell id="VssTWOe-dqne4Bf0Tcgv-57" value="Post Comment" style="rounded=0;whiteSpace=wrap;html=1;fontSize=16;" vertex="1" parent="1">
          <mxGeometry x="210" y="770" width="120" height="40" as="geometry" />
        </mxCell>
        <mxCell id="VssTWOe-dqne4Bf0Tcgv-58" value="View Comment" style="rounded=0;whiteSpace=wrap;html=1;fontSize=16;" vertex="1" parent="1">
          <mxGeometry x="210" y="820" width="120" height="40" as="geometry" />
        </mxCell>
        <mxCell id="VssTWOe-dqne4Bf0Tcgv-59" value="Update Own Comment" style="rounded=0;whiteSpace=wrap;html=1;fontSize=16;" vertex="1" parent="1">
          <mxGeometry x="210" y="870" width="120" height="40" as="geometry" />
        </mxCell>
        <mxCell id="VssTWOe-dqne4Bf0Tcgv-60" value="Delete Comment" style="rounded=0;whiteSpace=wrap;html=1;fontSize=16;" vertex="1" parent="1">
          <mxGeometry x="210" y="920" width="120" height="40" as="geometry" />
        </mxCell>
        <mxCell id="VssTWOe-dqne4Bf0Tcgv-61" value="Delete Music" style="rounded=0;whiteSpace=wrap;html=1;fontSize=16;" vertex="1" parent="1">
          <mxGeometry x="210" y="610" width="120" height="40" as="geometry" />
        </mxCell>
        <mxCell id="VssTWOe-dqne4Bf0Tcgv-62" value="" style="verticalLabelPosition=bottom;verticalAlign=top;html=1;shape=mxgraph.basic.rect;fillColor2=none;strokeWidth=1;size=20;indent=5;" vertex="1" parent="1">
          <mxGeometry x="40" y="500" width="70" height="30" as="geometry" />
        </mxCell>
        <mxCell id="VssTWOe-dqne4Bf0Tcgv-63" value="Admin" style="text;html=1;align=center;verticalAlign=middle;resizable=0;points=[];autosize=1;strokeColor=none;fillColor=none;" vertex="1" parent="1">
          <mxGeometry x="45" y="500" width="60" height="30" as="geometry" />
        </mxCell>
        <mxCell id="VssTWOe-dqne4Bf0Tcgv-64" value="&lt;font style=&quot;font-size: 14px;&quot;&gt;Delete Other&lt;span style=&quot;background-color: transparent; color: light-dark(rgb(0, 0, 0), rgb(255, 255, 255));&quot;&gt;&amp;nbsp;User Profile&lt;/span&gt;&lt;/font&gt;" style="rounded=0;whiteSpace=wrap;html=1;fontSize=16;" vertex="1" parent="1">
          <mxGeometry x="50" y="715" width="120" height="40" as="geometry" />
        </mxCell>
        <mxCell id="VssTWOe-dqne4Bf0Tcgv-65" value="Delete&lt;span style=&quot;background-color: transparent; color: light-dark(rgb(0, 0, 0), rgb(255, 255, 255));&quot;&gt;&amp;nbsp;Others&lt;/span&gt;&lt;div&gt;&lt;span style=&quot;background-color: transparent; color: light-dark(rgb(0, 0, 0), rgb(255, 255, 255));&quot;&gt;Playlists&lt;/span&gt;&lt;/div&gt;" style="rounded=0;whiteSpace=wrap;html=1;fontSize=16;" vertex="1" parent="1">
          <mxGeometry x="50" y="970" width="120" height="40" as="geometry" />
        </mxCell>
        <mxCell id="VssTWOe-dqne4Bf0Tcgv-66" value="Delete other Comment" style="rounded=0;whiteSpace=wrap;html=1;fontSize=16;" vertex="1" parent="1">
          <mxGeometry x="210" y="970" width="120" height="40" as="geometry" />
        </mxCell>
        <mxCell id="VssTWOe-dqne4Bf0Tcgv-67" value="" style="endArrow=classic;html=1;rounded=0;exitX=0.25;exitY=0;exitDx=0;exitDy=0;entryX=0.25;entryY=1;entryDx=0;entryDy=0;" edge="1" parent="1" source="VssTWOe-dqne4Bf0Tcgv-10" target="VssTWOe-dqne4Bf0Tcgv-1">
          <mxGeometry width="50" height="50" relative="1" as="geometry">
            <mxPoint x="130" y="470" as="sourcePoint" />
            <mxPoint x="130" y="450" as="targetPoint" />
          </mxGeometry>
        </mxCell>
        <mxCell id="VssTWOe-dqne4Bf0Tcgv-68" value="Manage User" style="text;html=1;align=center;verticalAlign=middle;resizable=0;points=[];autosize=1;strokeColor=none;fillColor=none;" vertex="1" parent="1">
          <mxGeometry x="20" y="450" width="100" height="30" as="geometry" />
        </mxCell>
        <mxCell id="VssTWOe-dqne4Bf0Tcgv-69" value="" style="endArrow=classic;html=1;rounded=0;exitX=1;exitY=0.395;exitDx=0;exitDy=0;exitPerimeter=0;entryX=0.5;entryY=1;entryDx=0;entryDy=0;" edge="1" parent="1" source="VssTWOe-dqne4Bf0Tcgv-10" target="VssTWOe-dqne4Bf0Tcgv-2">
          <mxGeometry width="50" height="50" relative="1" as="geometry">
            <mxPoint x="490" y="710" as="sourcePoint" />
            <mxPoint x="540" y="660" as="targetPoint" />
            <Array as="points">
              <mxPoint x="610" y="705" />
            </Array>
          </mxGeometry>
        </mxCell>
        <mxCell id="VssTWOe-dqne4Bf0Tcgv-70" value="Manage Artist" style="text;html=1;align=center;verticalAlign=middle;resizable=0;points=[];autosize=1;strokeColor=none;fillColor=none;" vertex="1" parent="1">
          <mxGeometry x="610" y="620" width="100" height="30" as="geometry" />
        </mxCell>
        <mxCell id="VssTWOe-dqne4Bf0Tcgv-71" value="" style="endArrow=classic;html=1;rounded=0;entryX=0;entryY=0.157;entryDx=0;entryDy=0;entryPerimeter=0;" edge="1" parent="1" target="VssTWOe-dqne4Bf0Tcgv-2">
          <mxGeometry width="50" height="50" relative="1" as="geometry">
            <mxPoint x="340" y="160" as="sourcePoint" />
            <mxPoint x="400" y="140" as="targetPoint" />
          </mxGeometry>
        </mxCell>
        <mxCell id="VssTWOe-dqne4Bf0Tcgv-72" value="Listen Music" style="text;html=1;align=center;verticalAlign=middle;resizable=0;points=[];autosize=1;strokeColor=none;fillColor=none;" vertex="1" parent="1">
          <mxGeometry x="350" y="130" width="90" height="30" as="geometry" />
        </mxCell>
        <mxCell id="VssTWOe-dqne4Bf0Tcgv-74" value="" style="endArrow=classic;html=1;rounded=0;entryX=0;entryY=0.235;entryDx=0;entryDy=0;entryPerimeter=0;exitX=1;exitY=0.334;exitDx=0;exitDy=0;exitPerimeter=0;" edge="1" parent="1" source="VssTWOe-dqne4Bf0Tcgv-1" target="VssTWOe-dqne4Bf0Tcgv-2">
          <mxGeometry width="50" height="50" relative="1" as="geometry">
            <mxPoint x="350" y="290" as="sourcePoint" />
            <mxPoint x="400" y="240" as="targetPoint" />
          </mxGeometry>
        </mxCell>
        <mxCell id="VssTWOe-dqne4Bf0Tcgv-75" value="Like Music" style="text;html=1;align=center;verticalAlign=middle;resizable=0;points=[];autosize=1;strokeColor=none;fillColor=none;" vertex="1" parent="1">
          <mxGeometry x="355" y="175" width="80" height="30" as="geometry" />
        </mxCell>
        <mxCell id="VssTWOe-dqne4Bf0Tcgv-77" value="" style="endArrow=classic;html=1;rounded=0;entryX=1.001;entryY=0.889;entryDx=0;entryDy=0;entryPerimeter=0;exitX=0;exitY=0.627;exitDx=0;exitDy=0;exitPerimeter=0;" edge="1" parent="1" source="VssTWOe-dqne4Bf0Tcgv-2" target="VssTWOe-dqne4Bf0Tcgv-1">
          <mxGeometry width="50" height="50" relative="1" as="geometry">
            <mxPoint x="370" y="280" as="sourcePoint" />
            <mxPoint x="420" y="230" as="targetPoint" />
          </mxGeometry>
        </mxCell>
        <mxCell id="VssTWOe-dqne4Bf0Tcgv-78" value="Post Music" style="text;html=1;align=center;verticalAlign=middle;resizable=0;points=[];autosize=1;strokeColor=none;fillColor=none;" vertex="1" parent="1">
          <mxGeometry x="355" y="376" width="80" height="30" as="geometry" />
        </mxCell>
        <mxCell id="VssTWOe-dqne4Bf0Tcgv-79" value="" style="endArrow=classic;html=1;rounded=0;exitX=0;exitY=0.549;exitDx=0;exitDy=0;exitPerimeter=0;entryX=1;entryY=0.778;entryDx=0;entryDy=0;entryPerimeter=0;" edge="1" parent="1" source="VssTWOe-dqne4Bf0Tcgv-2" target="VssTWOe-dqne4Bf0Tcgv-1">
          <mxGeometry width="50" height="50" relative="1" as="geometry">
            <mxPoint x="350" y="370" as="sourcePoint" />
            <mxPoint x="400" y="320" as="targetPoint" />
          </mxGeometry>
        </mxCell>
        <mxCell id="VssTWOe-dqne4Bf0Tcgv-80" value="View Comments" style="text;html=1;align=center;verticalAlign=middle;resizable=0;points=[];autosize=1;strokeColor=none;fillColor=none;" vertex="1" parent="1">
          <mxGeometry x="340" y="335" width="110" height="30" as="geometry" />
        </mxCell>
        <mxCell id="VssTWOe-dqne4Bf0Tcgv-82" value="" style="endArrow=classic;html=1;rounded=0;exitX=1;exitY=0.444;exitDx=0;exitDy=0;exitPerimeter=0;entryX=0;entryY=0.314;entryDx=0;entryDy=0;entryPerimeter=0;" edge="1" parent="1" source="VssTWOe-dqne4Bf0Tcgv-1" target="VssTWOe-dqne4Bf0Tcgv-2">
          <mxGeometry width="50" height="50" relative="1" as="geometry">
            <mxPoint x="360" y="260" as="sourcePoint" />
            <mxPoint x="410" y="210" as="targetPoint" />
          </mxGeometry>
        </mxCell>
        <mxCell id="VssTWOe-dqne4Bf0Tcgv-83" value="Post Comment" style="text;html=1;align=center;verticalAlign=middle;whiteSpace=wrap;rounded=0;" vertex="1" parent="1">
          <mxGeometry x="350" y="218" width="90" height="30" as="geometry" />
        </mxCell>
        <mxCell id="VssTWOe-dqne4Bf0Tcgv-84" value="" style="endArrow=classic;html=1;rounded=0;entryX=1.001;entryY=0.667;entryDx=0;entryDy=0;entryPerimeter=0;exitX=0;exitY=0.471;exitDx=0;exitDy=0;exitPerimeter=0;" edge="1" parent="1" source="VssTWOe-dqne4Bf0Tcgv-2" target="VssTWOe-dqne4Bf0Tcgv-1">
          <mxGeometry width="50" height="50" relative="1" as="geometry">
            <mxPoint x="370" y="350" as="sourcePoint" />
            <mxPoint x="420" y="300" as="targetPoint" />
          </mxGeometry>
        </mxCell>
        <mxCell id="VssTWOe-dqne4Bf0Tcgv-86" value="View Comment" style="text;html=1;align=center;verticalAlign=middle;whiteSpace=wrap;rounded=0;" vertex="1" parent="1">
          <mxGeometry x="350" y="290" width="90" height="30" as="geometry" />
        </mxCell>
        <mxCell id="VssTWOe-dqne4Bf0Tcgv-87" value="" style="endArrow=classic;html=1;rounded=0;exitX=0.5;exitY=0;exitDx=0;exitDy=0;entryX=0.5;entryY=1;entryDx=0;entryDy=0;" edge="1" parent="1" source="VssTWOe-dqne4Bf0Tcgv-10" target="VssTWOe-dqne4Bf0Tcgv-1">
          <mxGeometry width="50" height="50" relative="1" as="geometry">
            <mxPoint x="140" y="500" as="sourcePoint" />
            <mxPoint x="190" y="450" as="targetPoint" />
          </mxGeometry>
        </mxCell>
        <mxCell id="VssTWOe-dqne4Bf0Tcgv-89" value="Remove&lt;div&gt;Comments&lt;/div&gt;" style="text;html=1;align=center;verticalAlign=middle;resizable=0;points=[];autosize=1;strokeColor=none;fillColor=none;" vertex="1" parent="1">
          <mxGeometry x="120" y="450" width="80" height="40" as="geometry" />
        </mxCell>
        <mxCell id="VssTWOe-dqne4Bf0Tcgv-91" value="" style="endArrow=classic;html=1;rounded=0;entryX=0.344;entryY=1.001;entryDx=0;entryDy=0;entryPerimeter=0;exitX=1.008;exitY=0.35;exitDx=0;exitDy=0;exitPerimeter=0;" edge="1" parent="1" source="VssTWOe-dqne4Bf0Tcgv-10" target="VssTWOe-dqne4Bf0Tcgv-2">
          <mxGeometry width="50" height="50" relative="1" as="geometry">
            <mxPoint x="450" y="810" as="sourcePoint" />
            <mxPoint x="500" y="760" as="targetPoint" />
            <Array as="points">
              <mxPoint x="560" y="680" />
            </Array>
          </mxGeometry>
        </mxCell>
        <mxCell id="VssTWOe-dqne4Bf0Tcgv-92" value="Manages Music" style="text;html=1;align=center;verticalAlign=middle;whiteSpace=wrap;rounded=0;" vertex="1" parent="1">
          <mxGeometry x="500" y="620" width="60" height="30" as="geometry" />
        </mxCell>
      </root>
    </mxGraphModel>
  </diagram>
</mxfile>
